<?xml version="1.0" encoding="UTF-8" standalone="no"?>
<svg
   id="Icons"
   viewBox="0 0 1024 1024.4499"
   version="1.1"
   sodipodi:docname="icon_recording_inverse.svg"
   width="1024"
   height="1024.45"
   inkscape:version="1.4 (e7c3feb1, 2024-10-09)"
   xmlns:inkscape="http://www.inkscape.org/namespaces/inkscape"
   xmlns:sodipodi="http://sodipodi.sourceforge.net/DTD/sodipodi-0.dtd"
   xmlns="http://www.w3.org/2000/svg"
   xmlns:svg="http://www.w3.org/2000/svg">
  <defs
     id="defs7" />
  <sodipodi:namedview
     id="namedview7"
     pagecolor="#ffffff"
     bordercolor="#000000"
     borderopacity="0.25"
     inkscape:showpageshadow="2"
     inkscape:pageopacity="0.0"
     inkscape:pagecheckerboard="0"
     inkscape:deskcolor="#d1d1d1"
     inkscape:zoom="0.23314181"
     inkscape:cx="51.470819"
     inkscape:cy="364.58497"
     inkscape:window-width="1472"
     inkscape:window-height="895"
     inkscape:window-x="0"
     inkscape:window-y="33"
     inkscape:window-maximized="1"
     inkscape:current-layer="Icons" />
  <path
     id="path1"
     d="M 269.51172 103.08398 C 222.31772 103.08398 176.61419 138.37851 140.8125 202.45508 C 102.1245 271.68532 80.8125 364.34117 80.8125 463.33984 C 80.8125 562.33852 102.1245 654.99139 140.8125 724.24023 C 176.59508 788.31681 222.31772 823.61133 269.51172 823.61133 C 316.70573 823.61133 362.40925 788.31681 398.21094 724.24023 C 436.89894 654.99139 458.21094 562.31992 458.21094 463.33984 C 458.21094 364.35977 436.89894 271.70392 398.21094 202.45508 C 362.42836 138.37851 316.70573 103.08398 269.51172 103.08398 z M 374.01172 401.04883 A 65.180862 65.397552 0 0 1 439.19336 466.44531 A 65.180862 65.397552 0 0 1 374.01172 531.84375 A 65.180862 65.397552 0 0 1 308.83008 466.44531 A 65.180862 65.397552 0 0 1 374.01172 401.04883 z " />
  <path
     id="path4"
     d="M 754.48828 106.19141 C 707.29427 106.19141 661.59075 141.48593 625.78906 205.5625 C 587.10106 274.79274 565.78906 367.46523 565.78906 466.44531 C 565.78906 565.42538 587.10106 658.08124 625.78906 727.33008 C 661.57164 791.40665 707.29427 826.69922 754.48828 826.69922 C 801.68228 826.69922 847.38581 791.40665 883.1875 727.33008 C 921.8755 658.09984 943.1875 565.42538 943.1875 466.44531 C 943.1875 367.46523 921.8755 274.81134 883.1875 205.5625 C 847.40492 141.48593 801.68228 106.19141 754.48828 106.19141 z M 858.98828 404.15625 A 65.180862 65.397552 0 0 1 924.16797 469.55273 A 65.180862 65.397552 0 0 1 858.98828 534.95117 A 65.180862 65.397552 0 0 1 793.80664 469.55273 A 65.180862 65.397552 0 0 1 858.98828 404.15625 z " />
  <path
     d="m 430.59083,891.91151 c 0,0 18.23535,32.33598 80.35787,31.53595 62.14165,-0.80003 82.19289,-30.04752 82.19289,-30.04752"
     fill="none"
     stroke="#000000"
     stroke-linecap="round"
     stroke-miterlimit="10"
     stroke-width="49.4274"
     id="path7" />
</svg>
