<?xml version="1.0" encoding="UTF-8" standalone="no"?>
<svg
   id="Icons"
   viewBox="0 0 580 579.99999"
   version="1.1"
   sodipodi:docname="icon_recording.svg"
   width="580"
   height="580"
   inkscape:version="1.4 (e7c3feb1, 2024-10-09)"
   xmlns:inkscape="http://www.inkscape.org/namespaces/inkscape"
   xmlns:sodipodi="http://sodipodi.sourceforge.net/DTD/sodipodi-0.dtd"
   xmlns="http://www.w3.org/2000/svg"
   xmlns:svg="http://www.w3.org/2000/svg">
  <defs
     id="defs5" />
  <sodipodi:namedview
     id="namedview5"
     pagecolor="#ffffff"
     bordercolor="#000000"
     borderopacity="0.25"
     inkscape:showpageshadow="2"
     inkscape:pageopacity="0.0"
     inkscape:pagecheckerboard="0"
     inkscape:deskcolor="#d1d1d1"
     inkscape:zoom="0.3314921"
     inkscape:cx="141.78317"
     inkscape:cy="389.14955"
     inkscape:window-width="1472"
     inkscape:window-height="895"
     inkscape:window-x="0"
     inkscape:window-y="33"
     inkscape:window-maximized="1"
     inkscape:current-layer="Icons" />
  <g
     id="g6"
     transform="translate(0,5.7737371)">
    <g
       id="g3">
      <path
         d="m 163.14,78.83 c 18.89,0 38.81,16.72 54.67,45.88 9.14,16.81 16.37,36.6 21.48,58.82 5.41,23.53 8.16,48.6 8.16,74.52 0,25.92 -2.74,50.99 -8.16,74.52 -5.11,22.22 -12.34,42.01 -21.48,58.82 -15.85,29.16 -35.78,45.88 -54.67,45.88 -18.89,0 -38.81,-16.72 -54.67,-45.88 -9.14,-16.81 -16.37,-36.6 -21.48,-58.82 -5.41,-23.53 -8.16,-48.6 -8.16,-74.52 0,-25.92 2.74,-50.99 8.16,-74.52 5.11,-22.22 12.34,-42.01 21.48,-58.82 15.85,-29.16 35.78,-45.88 54.67,-45.88 m 0,-28.83 C 100.66,50 50,143.15 50,258.05 c 0,114.9 50.65,208.05 113.14,208.05 62.49,0 113.14,-93.15 113.14,-208.05 C 276.28,143.15 225.62,50 163.14,50 Z"
         fill="#000000"
         stroke-width="0"
         id="path1" />
      <g
         id="g2">
        <ellipse
           cx="217.81"
           cy="259.70999"
           rx="34.099998"
           ry="35.150002"
           fill="#000000"
           stroke-width="0"
           id="ellipse1" />
        <ellipse
           cx="217.81"
           cy="259.70999"
           rx="34.099998"
           ry="35.150002"
           fill="none"
           stroke="#000000"
           stroke-miterlimit="10"
           stroke-width="3.3"
           id="ellipse2" />
      </g>
    </g>
    <g
       id="g5">
      <path
         d="m 416.86,80.5 c 18.89,0 38.81,16.72 54.67,45.88 9.14,16.81 16.37,36.6 21.48,58.82 5.41,23.53 8.16,48.6 8.16,74.52 0,25.92 -2.74,50.99 -8.16,74.52 -5.11,22.22 -12.34,42.01 -21.48,58.82 -15.85,29.16 -35.78,45.88 -54.67,45.88 -18.89,0 -38.81,-16.72 -54.67,-45.88 -9.14,-16.81 -16.37,-36.6 -21.48,-58.82 -5.41,-23.53 -8.16,-48.6 -8.16,-74.52 0,-25.92 2.74,-50.99 8.16,-74.52 5.11,-22.22 12.34,-42.01 21.48,-58.82 15.85,-29.16 35.78,-45.88 54.67,-45.88 m 0,-28.83 c -62.48,0 -113.14,93.15 -113.14,208.05 0,114.9 50.65,208.05 113.14,208.05 C 479.35,467.77 530,374.62 530,259.72 530,144.82 479.35,51.67 416.86,51.67 Z"
         fill="#000000"
         stroke-width="0"
         id="path3" />
      <g
         id="g4">
        <ellipse
           cx="471.53"
           cy="261.38"
           rx="34.099998"
           ry="35.150002"
           fill="#000000"
           stroke-width="0"
           id="ellipse3" />
        <ellipse
           cx="471.53"
           cy="261.38"
           rx="34.099998"
           ry="35.150002"
           fill="none"
           stroke="#000000"
           stroke-miterlimit="10"
           stroke-width="3.3"
           id="ellipse4" />
      </g>
    </g>
    <path
       d="m 247.41,488.39 c 0,0 9.54,17.38 42.04,16.95 32.51,-0.43 43,-16.15 43,-16.15"
       fill="none"
       stroke="#000000"
       stroke-linecap="round"
       stroke-miterlimit="10"
       stroke-width="26.21"
       id="path5" />
  </g>
</svg>
