<?xml version="1.0" encoding="UTF-8" standalone="no"?>
<svg
   id="Icons"
   viewBox="0 0 1024 1024.4499"
   version="1.1"
   sodipodi:docname="icon_paused copy.svg"
   width="1024"
   height="1024.45"
   inkscape:version="1.4 (e7c3feb1, 2024-10-09)"
   xmlns:inkscape="http://www.inkscape.org/namespaces/inkscape"
   xmlns:sodipodi="http://sodipodi.sourceforge.net/DTD/sodipodi-0.dtd"
   xmlns="http://www.w3.org/2000/svg"
   xmlns:svg="http://www.w3.org/2000/svg">
  <defs
     id="defs7" />
  <sodipodi:namedview
     id="namedview7"
     pagecolor="#ffffff"
     bordercolor="#000000"
     borderopacity="0.25"
     inkscape:showpageshadow="2"
     inkscape:pageopacity="0.0"
     inkscape:pagecheckerboard="0"
     inkscape:deskcolor="#d1d1d1"
     inkscape:zoom="0.23314181"
     inkscape:cx="49.326202"
     inkscape:cy="360.29574"
     inkscape:window-width="1472"
     inkscape:window-height="895"
     inkscape:window-x="0"
     inkscape:window-y="33"
     inkscape:window-maximized="1"
     inkscape:current-layer="Icons" />
  <path
     id="path1"
     d="M 269.51172 103.08398 C 222.31772 103.08398 176.61419 138.37851 140.8125 202.45508 C 102.1245 271.68532 80.8125 364.34117 80.8125 463.33984 C 80.8125 464.8509 80.86313 466.34548 80.873047 467.85352 A 25.502399 25.502399 0 0 1 97.851562 458.10547 A 25.502399 25.502399 0 0 1 110.90234 460.09961 C 110.90234 460.09961 115.83708 462.6919 139.7207 466.51953 C 163.60432 470.34716 203.95397 474.33851 267.29492 474.13672 C 330.77724 473.93454 372.25708 470.13173 397.36719 466.5293 C 422.4773 462.92687 429.24805 460.22852 429.24805 460.22852 A 25.502399 25.502399 0 0 1 458.13867 468.74609 C 458.1529 466.9407 458.21094 465.14956 458.21094 463.33984 C 458.21094 364.35977 436.89894 271.70392 398.21094 202.45508 C 362.42836 138.37851 316.70573 103.08398 269.51172 103.08398 z M 81.806641 500.18945 C 86.421074 585.17032 106.96806 663.66104 140.8125 724.24023 C 176.59508 788.31681 222.31772 823.61133 269.51172 823.61133 C 316.70573 823.61133 362.40925 788.31681 398.21094 724.24023 C 431.96436 663.82395 452.48245 585.57392 457.16992 500.86523 A 25.502399 25.502399 0 0 1 446.56055 508.20508 C 446.56055 508.20508 432.53132 513.01175 404.60938 517.01758 C 376.68744 521.02341 332.90334 524.9322 267.45898 525.14062 C 201.91293 525.34944 158.90322 521.24875 131.64844 516.88086 C 104.39366 512.51296 90.412109 506.80664 90.412109 506.80664 A 25.502399 25.502399 0 0 1 81.806641 500.18945 z " />
  <path
     id="path4"
     d="M 754.48828 106.19141 C 707.29427 106.19141 661.59075 141.48593 625.78906 205.5625 C 587.10106 274.79274 565.78906 367.46523 565.78906 466.44531 C 565.78906 471.24944 565.88246 476.02451 565.98242 480.79688 A 25.502399 25.502399 0 0 1 567.96875 473.20898 A 25.502399 25.502399 0 0 1 588.51758 458.10547 A 25.502399 25.502399 0 0 1 601.56641 460.09961 C 601.56641 460.09961 606.50115 462.6919 630.38477 466.51953 C 654.26838 470.34716 694.61999 474.33851 757.96094 474.13672 C 821.44326 473.93454 862.92114 470.13173 888.03125 466.5293 C 913.14136 462.92687 919.91406 460.22852 919.91406 460.22852 A 25.502399 25.502399 0 0 1 943.14648 463.35547 C 942.70614 365.54237 921.47122 274.08771 883.1875 205.5625 C 847.40492 141.48593 801.68228 106.19141 754.48828 106.19141 z M 565.99414 481.74219 C 568.07523 574.9377 589.10252 661.6637 625.78906 727.33008 C 661.57164 791.40665 707.29427 826.69922 754.48828 826.69922 C 801.68228 826.69922 847.38581 791.40665 883.1875 727.33008 C 916.68848 667.38176 937.13014 589.84155 942.01758 505.86328 A 25.502399 25.502399 0 0 1 937.22656 508.20508 C 937.22656 508.20508 923.19733 513.01175 895.27539 517.01758 C 867.35345 521.02341 823.5674 524.9322 758.12305 525.14062 C 692.57699 525.34944 649.56923 521.24875 622.31445 516.88086 C 595.05967 512.51296 581.07812 506.80664 581.07812 506.80664 A 25.502399 25.502399 0 0 1 565.99414 481.74219 z " />
  <path
     d="m 430.59083,891.91151 c 0,0 18.23535,32.33598 80.35787,31.53595 62.14165,-0.80003 82.19289,-30.04752 82.19289,-30.04752"
     fill="none"
     stroke="#000000"
     stroke-linecap="round"
     stroke-miterlimit="10"
     stroke-width="49.4274"
     id="path7" />
</svg>
