<?xml version="1.0" encoding="UTF-8" standalone="no"?>
<svg
   id="Logomark"
   viewBox="0 0 844.78 273.39"
   version="1.1"
   sodipodi:docname="logomark_thick filled.svg"
   inkscape:version="1.4 (e7c3feb1, 2024-10-09)"
   xmlns:inkscape="http://www.inkscape.org/namespaces/inkscape"
   xmlns:sodipodi="http://sodipodi.sourceforge.net/DTD/sodipodi-0.dtd"
   xmlns="http://www.w3.org/2000/svg"
   xmlns:svg="http://www.w3.org/2000/svg">
  <defs
     id="defs14" />
  <sodipodi:namedview
     id="namedview14"
     pagecolor="#ffffff"
     bordercolor="#000000"
     borderopacity="0.25"
     inkscape:showpageshadow="2"
     inkscape:pageopacity="0.0"
     inkscape:pagecheckerboard="0"
     inkscape:deskcolor="#d1d1d1"
     inkscape:zoom="0.60033494"
     inkscape:cx="251.52626"
     inkscape:cy="216.54578"
     inkscape:window-width="1472"
     inkscape:window-height="895"
     inkscape:window-x="0"
     inkscape:window-y="33"
     inkscape:window-maximized="1"
     inkscape:current-layer="Logomark" />
  <g
     id="g8">
    <path
       d="M303.89,92.97c13.47,0,23.84,3.43,31.11,10.29,7.27,6.86,10.9,17.31,10.9,31.36,0,7.35-.82,13.86-2.45,19.54-1.63,5.68-4.16,10.45-7.59,14.33-3.43,3.88-7.8,6.84-13.11,8.88-5.31,2.04-11.6,3.06-18.86,3.06h-30.01v-87.46h30.01ZM304.87,170.62c1.31,0,2.94-.1,4.9-.31,1.96-.2,4.04-.69,6.25-1.47,2.2-.78,4.39-1.9,6.55-3.37,2.16-1.47,4.1-3.47,5.82-6,1.72-2.53,3.12-5.7,4.23-9.49,1.1-3.8,1.65-8.39,1.65-13.78s-.51-9.9-1.53-14.02c-1.02-4.12-2.7-7.63-5.02-10.53-2.33-2.9-5.33-5.1-9-6.61-3.67-1.51-8.21-2.27-13.6-2.27h-19.6v67.86h19.35Z"
       fill="#000"
       stroke="#000"
       stroke-miterlimit="10"
       stroke-width="1.89"
       id="path1" />
    <path
       d="M356.93,135.78c1.31-4.04,3.26-7.55,5.88-10.53,2.61-2.98,5.84-5.33,9.68-7.04,3.84-1.72,8.25-2.57,13.23-2.57s9.49.86,13.29,2.57c3.8,1.71,7,4.06,9.62,7.04,2.61,2.98,4.57,6.49,5.88,10.53,1.31,4.04,1.96,8.39,1.96,13.04s-.66,8.98-1.96,12.98c-1.31,4-3.27,7.49-5.88,10.47-2.61,2.98-5.82,5.31-9.62,6.98-3.8,1.67-8.23,2.51-13.29,2.51s-9.39-.84-13.23-2.51c-3.84-1.67-7.06-4-9.68-6.98-2.61-2.98-4.57-6.47-5.88-10.47-1.31-4-1.96-8.33-1.96-12.98s.65-9,1.96-13.04ZM367.52,159.05c1.02,2.98,2.43,5.47,4.23,7.47,1.8,2,3.9,3.53,6.31,4.59,2.41,1.06,4.96,1.59,7.66,1.59s5.25-.53,7.66-1.59c2.41-1.06,4.51-2.59,6.31-4.59,1.79-2,3.2-4.49,4.23-7.47,1.02-2.98,1.53-6.39,1.53-10.23s-.51-7.25-1.53-10.23c-1.02-2.98-2.43-5.49-4.23-7.53-1.8-2.04-3.9-3.59-6.31-4.65-2.41-1.06-4.96-1.59-7.66-1.59s-5.25.53-7.66,1.59c-2.41,1.06-4.51,2.61-6.31,4.65-1.8,2.04-3.21,4.55-4.23,7.53-1.02,2.98-1.53,6.39-1.53,10.23s.51,7.25,1.53,10.23Z"
       fill="#000"
       stroke="#000"
       stroke-miterlimit="10"
       stroke-width="1.89"
       id="path2" />
    <path
       d="M438.5,117.1v10.04h.25c4.33-7.67,11.19-11.51,20.58-11.51,4.17,0,7.63.57,10.41,1.71,2.77,1.14,5.02,2.74,6.74,4.78,1.72,2.04,2.92,4.47,3.61,7.29.69,2.82,1.04,5.94,1.04,9.37v41.65h-10.41v-42.87c0-3.92-1.14-7.02-3.43-9.31-2.29-2.29-5.43-3.43-9.43-3.43-3.18,0-5.94.49-8.27,1.47s-4.27,2.37-5.82,4.17c-1.55,1.8-2.72,3.9-3.49,6.31-.78,2.41-1.16,5.04-1.16,7.9v35.77h-10.41v-63.33h9.8Z"
       fill="#000"
       stroke="#000"
       stroke-miterlimit="10"
       stroke-width="1.89"
       id="path3" />
    <path
       d="M541.64,176.38c-4.74,3.59-10.7,5.39-17.88,5.39-5.06,0-9.45-.82-13.17-2.45-3.72-1.63-6.84-3.92-9.37-6.86-2.53-2.94-4.43-6.45-5.7-10.53-1.27-4.08-1.98-8.53-2.14-13.35,0-4.82.73-9.23,2.2-13.23,1.47-4,3.53-7.47,6.19-10.41,2.65-2.94,5.8-5.22,9.43-6.86,3.63-1.63,7.61-2.45,11.94-2.45,5.63,0,10.31,1.16,14.02,3.49,3.71,2.33,6.69,5.29,8.94,8.88,2.24,3.59,3.8,7.51,4.65,11.76.86,4.25,1.2,8.29,1.04,12.13h-47.4c-.08,2.78.25,5.41.98,7.9.73,2.49,1.92,4.7,3.55,6.61,1.63,1.92,3.71,3.45,6.25,4.59,2.53,1.14,5.51,1.72,8.94,1.72,4.41,0,8.02-1.02,10.84-3.06,2.82-2.04,4.67-5.14,5.57-9.31h10.29c-1.39,7.1-4.45,12.45-9.19,16.05ZM539.13,135.71c-.94-2.2-2.2-4.1-3.8-5.69-1.59-1.59-3.47-2.86-5.63-3.8-2.16-.94-4.55-1.41-7.17-1.41s-5.12.47-7.29,1.41c-2.16.94-4.02,2.23-5.57,3.86-1.55,1.63-2.78,3.53-3.68,5.7-.9,2.16-1.43,4.47-1.59,6.92h36.38c-.16-2.45-.72-4.78-1.65-6.98Z"
       fill="#000"
       stroke="#000"
       stroke-miterlimit="10"
       stroke-width="1.89"
       id="path4" />
    <path
       d="M554.99,102.77v-9.8h69.94v9.8h-29.15v77.66h-11.64v-77.66h-29.15Z"
       fill="#000"
       stroke="#000"
       stroke-miterlimit="10"
       stroke-width="1.89"
       id="path5" />
    <path
       d="M643.3,92.97v33.44h.25c.81-1.96,1.96-3.61,3.43-4.96,1.47-1.35,3.12-2.45,4.96-3.31,1.84-.86,3.76-1.49,5.76-1.9,2-.41,3.94-.61,5.82-.61,4.17,0,7.63.57,10.41,1.71,2.77,1.14,5.02,2.74,6.74,4.78,1.72,2.04,2.92,4.47,3.61,7.29.69,2.82,1.04,5.94,1.04,9.37v41.65h-10.41v-42.87c0-3.92-1.14-7.02-3.43-9.31-2.29-2.29-5.43-3.43-9.43-3.43-3.18,0-5.94.49-8.27,1.47s-4.27,2.37-5.82,4.17c-1.55,1.8-2.72,3.9-3.49,6.31-.78,2.41-1.16,5.04-1.16,7.9v35.77h-10.41v-87.46h10.41Z"
       fill="#000"
       stroke="#000"
       stroke-miterlimit="10"
       stroke-width="1.89"
       id="path6" />
    <path
       d="M757.09,180.18c-1.8,1.06-4.29,1.59-7.47,1.59-2.69,0-4.84-.76-6.43-2.27-1.59-1.51-2.39-3.98-2.39-7.41-2.86,3.43-6.19,5.9-9.98,7.41-3.8,1.51-7.9,2.27-12.31,2.27-2.86,0-5.57-.33-8.15-.98s-4.8-1.67-6.68-3.06c-1.88-1.39-3.37-3.2-4.47-5.45-1.1-2.24-1.65-4.96-1.65-8.14,0-3.59.61-6.53,1.84-8.82,1.23-2.29,2.84-4.14,4.84-5.57,2-1.43,4.29-2.51,6.86-3.25,2.57-.74,5.21-1.35,7.9-1.84,2.86-.57,5.57-1,8.15-1.29,2.57-.29,4.84-.69,6.8-1.23,1.96-.53,3.51-1.31,4.65-2.33,1.14-1.02,1.71-2.51,1.71-4.47,0-2.28-.43-4.12-1.29-5.51-.86-1.39-1.96-2.45-3.31-3.18-1.35-.73-2.86-1.22-4.53-1.47-1.67-.25-3.33-.37-4.96-.37-4.41,0-8.08.84-11.02,2.51-2.94,1.67-4.53,4.84-4.78,9.49h-10.41c.16-3.92.98-7.23,2.45-9.92,1.47-2.7,3.43-4.88,5.88-6.55,2.45-1.67,5.25-2.88,8.39-3.61,3.14-.73,6.51-1.1,10.11-1.1,2.86,0,5.7.2,8.51.61,2.82.41,5.37,1.24,7.66,2.51,2.29,1.26,4.12,3.04,5.51,5.32,1.39,2.28,2.08,5.26,2.08,8.92v32.51c0,2.45.14,4.24.43,5.38.29,1.14,1.24,1.71,2.88,1.71.9,0,1.96-.16,3.18-.49v8.08ZM740.19,147.72c-1.31.98-3.02,1.69-5.14,2.13-2.13.45-4.35.81-6.68,1.1-2.33.28-4.68.61-7.04.98-2.37.37-4.49.95-6.37,1.77-1.88.81-3.41,1.97-4.59,3.47-1.19,1.5-1.78,3.56-1.78,6.16,0,1.71.35,3.15,1.04,4.33.69,1.18,1.59,2.13,2.69,2.86,1.1.73,2.39,1.26,3.86,1.58,1.47.33,3.02.49,4.65.49,3.43,0,6.37-.47,8.82-1.4,2.45-.93,4.45-2.11,6-3.54,1.55-1.42,2.7-2.97,3.43-4.63s1.1-3.23,1.1-4.69v-10.61Z"
       fill="#000"
       stroke="#000"
       stroke-miterlimit="10"
       stroke-width="1.89"
       id="path7" />
    <path
       d="M793.84,117.1v9.19h-12.62v39.32c0,1.22.1,2.2.31,2.94.2.73.59,1.31,1.16,1.72.57.41,1.37.67,2.39.8,1.02.12,2.35.18,3.98.18h4.78v9.19h-7.96c-2.69,0-5-.18-6.92-.55-1.92-.37-3.47-1.04-4.65-2.02-1.19-.98-2.06-2.37-2.63-4.17-.57-1.79-.86-4.16-.86-7.1v-40.3h-10.78v-9.19h10.78v-18.99h10.41v18.99h12.62Z"
       fill="#000"
       stroke="#000"
       stroke-miterlimit="10"
       stroke-width="1.89"
       id="path8" />
  </g>
  <path
     d="m 91.87,60.67 c 6.99,0 14.37,6.19 20.23,16.98 6.97,12.82 10.97,30.81 10.97,49.35 0,18.54 -4,36.53 -10.97,49.35 -5.87,10.79 -13.24,16.98 -20.23,16.98 -6.99,0 -14.37,-6.19 -20.23,-16.98 C 64.67,163.53 60.67,145.54 60.67,127 c 0,-18.54 4,-36.53 10.97,-49.35 C 77.51,66.86 84.88,60.67 91.87,60.67 M 91.87,50 C 68.74,50 50,84.48 50,127 c 0,42.52 18.75,77 41.87,77 23.12,0 41.87,-34.48 41.87,-77 0,-42.52 -18.75,-77 -41.87,-77 z"
     fill="#000000"
     stroke-width="0"
     id="path9" />
  <path
     d="m 185.79,61.29 c 6.99,0 14.37,6.19 20.23,16.98 6.97,12.82 10.97,30.81 10.97,49.35 0,18.54 -4,36.53 -10.97,49.35 -5.87,10.79 -13.24,16.98 -20.23,16.98 -6.99,0 -14.37,-6.19 -20.23,-16.98 -6.97,-12.82 -10.97,-30.81 -10.97,-49.35 0,-18.54 4,-36.53 10.97,-49.35 5.87,-10.79 13.24,-16.98 20.23,-16.98 m 0,-10.67 c -23.13,0 -41.87,34.48 -41.87,77 0,42.52 18.75,77 41.87,77 23.12,0 41.87,-34.48 41.87,-77 0,-42.52 -18.75,-77 -41.87,-77 z"
     fill="#000000"
     stroke-width="0"
     id="path11" />
  <path
     d="m 123.07,212.26 c 0,0 3.53,6.43 15.56,6.27 12.03,-0.16 15.92,-5.98 15.92,-5.98"
     fill="none"
     stroke="#000000"
     stroke-linecap="round"
     stroke-miterlimit="10"
     stroke-width="9.7"
     id="path13" />
  <path
     style="fill:#ffffff;stroke:#ffffff;stroke-width:2.64304;stroke-linecap:round;stroke-linejoin:round"
     d="M 89.46677,192.93638 C 83.22183,191.68625 76.112419,184.73855 71.152174,175.03838 59.402091,152.0601 57.472026,117.20709 66.456557,90.245173 72.758904,71.332294 83.864865,59.367353 93.617563,60.983428 c 10.414577,1.725751 20.357747,15.669697 25.588107,35.883843 7.89332,30.505889 2.72003,67.824409 -12.01622,86.681249 -5.62701,7.20044 -11.94133,10.54519 -17.72268,9.38786 z"
     id="path16" />
  <path
     style="fill:#ffffff;stroke:#ffffff;stroke-width:2.64304;stroke-linecap:round;stroke-linejoin:round"
     d="m 182.63379,193.37218 c -8.66327,-2.50975 -16.79445,-12.99244 -22.06432,-28.44523 -8.90005,-26.09757 -7.44744,-60.21968 3.54997,-83.389288 5.40257,-11.382284 12.97023,-18.945054 19.94579,-19.932915 4.42153,-0.626167 8.87393,1.200307 13.4285,5.508671 10.12542,9.578085 17.31729,28.89772 18.99036,51.014132 0.40231,5.31815 0.17795,18.73919 -0.3935,23.53918 -1.57329,13.21499 -4.63213,24.11095 -9.4232,33.56656 -4.73291,9.34084 -10.55013,15.59282 -16.51888,17.75346 -1.92424,0.69656 -5.76139,0.89337 -7.51472,0.38543 z"
     id="path17" />
  <g
     id="g12"
     transform="translate(-2.4561705,-0.62000549)">
    <ellipse
       cx="206.02"
       cy="128.24001"
       rx="12.62"
       ry="13.01"
       fill="#000000"
       stroke-width="0"
       id="ellipse11" />
    <ellipse
       cx="206.02"
       cy="128.24001"
       rx="12.62"
       ry="13.01"
       fill="none"
       stroke="#000000"
       stroke-miterlimit="10"
       stroke-width="1.22"
       id="ellipse12" />
  </g>
  <g
     id="g10"
     transform="translate(-2.4561705)">
    <ellipse
       cx="112.11"
       cy="127.62"
       rx="12.62"
       ry="13.01"
       fill="#000000"
       stroke-width="0"
       id="ellipse9" />
    <ellipse
       cx="112.11"
       cy="127.62"
       rx="12.62"
       ry="13.01"
       fill="none"
       stroke="#000000"
       stroke-miterlimit="10"
       stroke-width="1.22"
       id="ellipse10" />
  </g>
</svg>
