<?xml version="1.0" encoding="UTF-8" standalone="no"?>
<svg
   id="Icons"
   viewBox="0 0 1024 1024.4499"
   version="1.1"
   sodipodi:docname="icon_thick_fill_1024.svg"
   width="1024"
   height="1024.45"
   inkscape:version="1.4 (e7c3feb1, 2024-10-09)"
   xmlns:inkscape="http://www.inkscape.org/namespaces/inkscape"
   xmlns:sodipodi="http://sodipodi.sourceforge.net/DTD/sodipodi-0.dtd"
   xmlns="http://www.w3.org/2000/svg"
   xmlns:svg="http://www.w3.org/2000/svg">
  <defs
     id="defs7" />
  <sodipodi:namedview
     id="namedview7"
     pagecolor="#ffffff"
     bordercolor="#000000"
     borderopacity="0.25"
     inkscape:showpageshadow="2"
     inkscape:pageopacity="0.0"
     inkscape:pagecheckerboard="0"
     inkscape:deskcolor="#d1d1d1"
     inkscape:zoom="0.23314181"
     inkscape:cx="49.326201"
     inkscape:cy="364.58496"
     inkscape:window-width="1472"
     inkscape:window-height="895"
     inkscape:window-x="0"
     inkscape:window-y="33"
     inkscape:window-maximized="1"
     inkscape:current-layer="Icons" />
  <g
     id="g7"
     transform="translate(-5.3294445,-25.196068)">
    <path
       d="m 274.84132,848.80758 c -47.194,0 -92.91618,-35.29421 -128.69876,-99.37079 -38.688,-69.24884 -60.000803,-161.90312 -60.000803,-260.9018 0,-98.99867 21.312803,-191.65295 60.000803,-260.88319 35.80169,-64.07657 81.50476,-99.37078 128.69876,-99.37078 47.19401,0 92.91619,35.29421 128.69877,99.37078 38.688,69.24884 60.0008,161.90312 60.0008,260.88319 0,98.98008 -21.3128,191.65296 -60.0008,260.9018 -35.80169,64.07658 -81.50476,99.37079 -128.69877,99.37079 z"
       fill="#ffffff"
       stroke-width="0"
       id="path1" />
    <path
       d="m 274.84132,155.10983 c 36.10753,0 74.18386,31.10802 104.49965,85.36101 17.47077,31.27547 31.29064,68.09531 41.05822,109.43624 10.34101,43.77821 15.59753,90.42164 15.59753,138.64652 0,48.22488 -5.23741,94.86831 -15.59753,138.64652 -9.76758,41.34093 -23.58745,78.16077 -41.05822,109.43624 -30.29667,54.25299 -68.39212,85.36101 -104.49965,85.36101 -36.10752,0 -74.18385,-31.10802 -104.49964,-85.36101 -17.47077,-31.27547 -31.29064,-68.09531 -41.05822,-109.43624 -10.34101,-43.77821 -15.59753,-90.42164 -15.59753,-138.64652 0,-48.22488 5.23741,-94.86831 15.59753,-138.64652 9.76758,-41.34093 23.58745,-78.16077 41.05822,-109.43624 30.29667,-54.25299 68.39212,-85.36101 104.49964,-85.36101 m 0,-53.63902 c -119.42817,0 -216.262851,173.30816 -216.262851,387.08279 0,213.77463 96.815571,387.08279 216.262851,387.08279 119.44729,0 216.26286,-173.30816 216.26286,-387.08279 0,-213.77463 -96.83468,-387.08279 -216.26286,-387.08279 z"
       fill="#000000"
       stroke-width="0"
       id="path2" />
    <ellipse
       cx="379.34097"
       cy="491.64206"
       rx="65.180862"
       ry="65.397552"
       fill="#000000"
       stroke-width="0"
       id="ellipse2" />
    <ellipse
       cx="379.34097"
       cy="491.64206"
       rx="65.180862"
       ry="65.397552"
       fill="none"
       stroke="#000000"
       stroke-miterlimit="10"
       stroke-width="6.22322"
       id="ellipse3" />
    <path
       d="m 759.81757,851.89605 c -47.19401,0 -92.91619,-35.29421 -128.69877,-99.37078 -38.688,-69.24884 -60.0008,-161.90312 -60.0008,-260.88319 0,-98.98008 21.3128,-191.65296 60.0008,-260.8832 35.80169,-64.07657 81.50476,-99.37078 128.69877,-99.37078 47.194,0 92.91618,35.29421 128.69876,99.37078 38.688,69.24884 60.0008,161.90312 60.0008,260.8832 0,98.98007 -21.3128,191.65295 -60.0008,260.88319 -35.80169,64.07657 -81.50476,99.37078 -128.69876,99.37078 z"
       fill="#ffffff"
       stroke-width="0"
       id="path4" />
    <path
       d="m 759.81757,158.21691 c 36.10752,0 74.18385,31.10802 104.49964,85.36101 17.47077,31.27547 31.29064,68.09531 41.05822,109.43624 10.34101,43.77821 15.59753,90.42164 15.59753,138.64652 0,48.22488 -5.23741,94.86831 -15.59753,138.64653 -9.76758,41.34092 -23.58745,78.16076 -41.05822,109.43623 -30.29667,54.25299 -68.39212,85.36102 -104.49964,85.36102 -36.10753,0 -74.18386,-31.10803 -104.49965,-85.36102 -17.47077,-31.27547 -31.29064,-68.09531 -41.05822,-109.43623 -10.34101,-43.77822 -15.59753,-90.42165 -15.59753,-138.64653 0,-48.22488 5.23741,-94.86831 15.59753,-138.64652 9.76758,-41.34093 23.58745,-78.16077 41.05822,-109.43624 30.29667,-54.25299 68.39212,-85.36101 104.49965,-85.36101 m 0,-53.63902 c -119.42818,0 -216.26286,173.30816 -216.26286,387.08279 0,213.77463 96.81557,387.08279 216.26286,387.08279 119.44728,0 216.26285,-173.30816 216.26285,-387.08279 0,-213.77463 -96.81557,-387.08279 -216.26285,-387.08279 z"
       fill="#000000"
       stroke-width="0"
       id="path5" />
    <ellipse
       cx="864.3172"
       cy="494.74918"
       rx="65.180862"
       ry="65.397552"
       fill="#000000"
       stroke-width="0"
       id="ellipse5" />
    <ellipse
       cx="864.3172"
       cy="494.74918"
       rx="65.180862"
       ry="65.397552"
       fill="none"
       stroke="#000000"
       stroke-miterlimit="10"
       stroke-width="6.22322"
       id="ellipse6" />
    <path
       d="m 435.92027,917.10758 c 0,0 18.23535,32.33598 80.35787,31.53595 62.14165,-0.80003 82.19289,-30.04752 82.19289,-30.04752"
       fill="none"
       stroke="#000000"
       stroke-linecap="round"
       stroke-miterlimit="10"
       stroke-width="49.4274"
       id="path7" />
  </g>
</svg>
